<svg id="Warstwa_1" data-name="Warstwa 1" xmlns="http://www.w3.org/2000/svg" viewBox="0 0 23.4 28.09"><defs><style>.cls-1{fill:#fff;stroke:#000;stroke-miterlimit:10;stroke-width:0.25px;}.cls-2{fill:#f7931e;}.cls-3{fill:#fbb03b;}.cls-4{fill:#8c6239;}</style></defs><path class="cls-1" d="M27.32,18.39" transform="translate(-11.51 -9.5)"/><path class="cls-2" d="M27.65,35.67c-3.47,2.94-11.26,2.56-14.53-1.57-3.1-3.94-.84-9.66-.54-10.4a14.1,14.1,0,0,1,3.36-4.8c2.9-2.87,4.67-2.45,6.8-5.25,1.61-2.13,1.24-3.21,2.69-3.85,2.05-.9,4.93.38,6.59,1.75a8,8,0,0,1,2.85,4.86c.28,2.59-1.4,4-3,6.5C27.91,29.29,30.89,32.92,27.65,35.67Z" transform="translate(-11.51 -9.5)"/><path class="cls-3" d="M17.2,30.23c-1.53-1.4-.18-5.87,2.13-8.28a10.24,10.24,0,0,1,2.54-1.88c1.86-.91,2.79-.5,4.75-1.56,1.24-.67,1.63-1.25,2-1.07.7.4-.32,3.42-.66,4.43-.9,2.66-1.38,4.11-2.62,5.49C23,29.9,18.72,31.62,17.2,30.23Z" transform="translate(-11.51 -9.5)"/><ellipse class="cls-4" cx="26.46" cy="19.62" rx="1" ry="0.5" transform="translate(-17.58 4.96) rotate(-27.55)"/><ellipse class="cls-4" cx="26.12" cy="21.49" rx="1" ry="0.5" transform="translate(-18.48 5.02) rotate(-27.55)"/><ellipse class="cls-4" cx="23.91" cy="21.17" rx="1" ry="0.5" transform="translate(-18.58 3.96) rotate(-27.55)"/><ellipse class="cls-4" cx="23.58" cy="23.38" rx="1" ry="0.5" transform="translate(-19.64 4.06) rotate(-27.55)"/><ellipse class="cls-4" cx="25.8" cy="23.7" rx="1" ry="0.5" transform="translate(-19.54 5.12) rotate(-27.55)"/><ellipse class="cls-4" cx="24.08" cy="26.16" rx="1" ry="0.5" transform="translate(-20.88 4.6) rotate(-27.55)"/><ellipse class="cls-4" cx="21.13" cy="21.66" rx="1" ry="0.5" transform="translate(-19.13 2.73) rotate(-27.55)"/><ellipse class="cls-4" cx="20.8" cy="23.87" rx="1" ry="0.5" transform="translate(-20.19 2.83) rotate(-27.55)"/><ellipse class="cls-4" cx="21.86" cy="25.84" rx="1" ry="0.5" transform="translate(-20.98 3.54) rotate(-27.55)"/><ellipse class="cls-4" cx="21.54" cy="28.05" rx="1" ry="0.5" transform="translate(-22.04 3.64) rotate(-27.55)"/><ellipse class="cls-4" cx="19.33" cy="27.72" rx="1" ry="0.5" transform="translate(-22.14 2.58) rotate(-27.55)"/><ellipse class="cls-4" cx="18.26" cy="25.76" rx="1" ry="0.5" transform="matrix(0.89, -0.46, 0.46, 0.89, -21.35, 1.87)"/></svg>